<svg xmlns="http://www.w3.org/2000/svg" xmlns:xlink="http://www.w3.org/1999/xlink" style="margin: auto; background: rgb(241, 242, 243) none repeat scroll 0% 0%; display: block;" width="50px" height="50px" viewBox="0 0 100 100" preserveAspectRatio="xMidYMid">
<g transform="translate(50 50)">
<g>
<animateTransform attributeName="transform" type="rotate" values="0;36" keyTimes="0;1" dur="0.5s" repeatCount="indefinite"></animateTransform><path d="M23.84848003542364 -7.5 L33.84848003542364 -7.5 L33.84848003542364 7.5 L23.84848003542364 7.5 A25 25 0 0 1 23.702215030862924 7.950157396601387 L23.702215030862924 7.950157396601387 L31.792384974612396 13.828009919526119 L22.9756061902253 25.963264835150333 L14.885436246475825 20.0854123122256 A25 25 0 0 1 14.502509493171207 20.36362488361242 L14.502509493171207 20.36362488361242 L17.592679436920683 29.874190046563953 L3.326831692493376 34.50944496218817 L0.23666174874390095 24.998879799236633 A25 25 0 0 1 -0.23666174874389787 24.998879799236633 L-0.23666174874389787 24.998879799236633 L-3.326831692493372 34.50944496218817 L-17.59267943692068 29.87419004656396 L-14.502509493171207 20.363624883612424 A25 25 0 0 1 -14.885436246475821 20.0854123122256 L-14.885436246475821 20.0854123122256 L-22.975606190225292 25.963264835150333 L-31.792384974612396 13.82800991952612 L-23.702215030862924 7.950157396601389 A25 25 0 0 1 -23.848480035423638 7.500000000000005 L-23.848480035423638 7.500000000000005 L-33.848480035423634 7.500000000000007 L-33.84848003542364 -7.4999999999999964 L-23.84848003542364 -7.499999999999998 A25 25 0 0 1 -23.702215030862924 -7.950157396601383 L-23.702215030862924 -7.950157396601383 L-31.792384974612396 -13.828009919526114 L-22.975606190225303 -25.963264835150326 L-14.885436246475829 -20.085412312225596 A25 25 0 0 1 -14.502509493171209 -20.36362488361242 L-14.502509493171209 -20.36362488361242 L-17.592679436920683 -29.874190046563953 L-3.3268316924933803 -34.50944496218817 L-0.23666174874390403 -24.998879799236633 A25 25 0 0 1 0.23666174874389484 -24.998879799236633 L0.23666174874389484 -24.998879799236633 L3.3268316924933674 -34.50944496218817 L17.592679436920676 -29.87419004656396 L14.502509493171203 -20.363624883612424 A25 25 0 0 1 14.88543624647582 -20.085412312225603 L14.88543624647582 -20.085412312225603 L22.975606190225292 -25.963264835150337 L31.792384974612396 -13.828009919526124 L23.702215030862924 -7.950157396601392 A25 25 0 0 1 23.848480035423638 -7.500000000000008 M0 -20A20 20 0 1 0 0 20 A20 20 0 1 0 0 -20" fill="#353535"></path></g></g>
</svg>